<mxfile host="app.diagrams.net" modified="2022-08-26T09:05:10.006Z" agent="5.0 (Windows NT 10.0; Win64; x64) AppleWebKit/537.36 (KHTML, like Gecko) Chrome/104.0.0.0 Safari/537.36" etag="SzWDK9SSEyEvT7Fu2nO5" version="20.2.6" type="github">
  <diagram name="Page-1" id="74e2e168-ea6b-b213-b513-2b3c1d86103e">
    <mxGraphModel dx="3146" dy="823" grid="1" gridSize="10" guides="1" tooltips="1" connect="1" arrows="1" fold="1" page="1" pageScale="1" pageWidth="1100" pageHeight="850" background="none" math="0" shadow="0">
      <root>
        <mxCell id="0" />
        <mxCell id="1" parent="0" />
        <mxCell id="j_tfujGIEcSghfzUpASe-5" style="swimlane;startSize=20;horizontal=0;" parent="1" vertex="1">
          <mxGeometry x="-100" y="81" width="6260" height="923" as="geometry" />
        </mxCell>
        ...
      </root>
    </mxGraphModel>
  </diagram>
</mxfile>